<?xml version="1.0" standalone="no"?>
<!DOCTYPE svg PUBLIC "-//W3C//DTD SVG 20010904//EN"
 "http://www.w3.org/TR/2001/REC-SVG-20010904/DTD/svg10.dtd">
<svg version="1.0" xmlns="http://www.w3.org/2000/svg"
 width="512.000000pt" height="512.000000pt" viewBox="0 0 512.000000 512.000000"
 preserveAspectRatio="xMidYMid meet">


<g transform="translate(0.000000,512.000000) scale(0.100000,-0.100000)"
fill="" stroke="none" >
<style>
  path {
    fill: #273240;
  }
  @media (prefers-color-scheme: dark) {
    path { fill: #ffffff; }
  }
</style>
<path d="M2505 4855 l-25 -24 0 -231 0 -231 25 -24 c15 -16 36 -25 55 -25 19
0 40 9 55 25 l25 24 0 231 0 231 -25 24 c-15 16 -36 25 -55 25 -19 0 -40 -9
-55 -25z"/>
<path d="M2013 4570 c-12 -5 -30 -21 -39 -35 -16 -25 -16 -31 6 -127 29 -122
47 -148 100 -148 30 0 43 6 59 26 26 33 26 45 -1 151 -28 114 -68 156 -125
133z"/>
<path d="M3048 4565 c-20 -11 -32 -30 -42 -68 -45 -159 -46 -184 -13 -215 41
-39 105 -26 125 25 19 48 44 157 44 192 0 59 -61 95 -114 66z"/>
<path d="M1361 4544 c-12 -15 -21 -36 -21 -48 0 -26 203 -384 232 -408 45 -39
128 -2 128 56 0 25 -165 324 -217 394 -20 26 -31 32 -63 32 -30 0 -43 -6 -59
-26z"/>
<path d="M3637 4538 c-52 -70 -217 -369 -217 -394 0 -58 83 -95 128 -56 29 24
232 382 232 408 0 12 -9 33 -21 48 -16 20 -29 26 -59 26 -32 0 -43 -6 -63 -32z"/>
<path d="M2372 4070 c-336 -43 -658 -195 -902 -427 -255 -243 -411 -525 -481
-870 -18 -90 -23 -154 -27 -375 l-4 -267 25 -25 c33 -33 80 -34 111 -3 23 23
24 28 29 293 6 293 15 362 77 546 79 235 243 477 429 632 589 491 1418 455
1951 -85 199 -201 329 -447 393 -738 20 -92 21 -130 24 -863 l4 -768 -1281 0
-1281 0 4 768 c4 858 1 820 78 1017 52 134 140 268 248 375 214 215 491 330
791 330 549 0 1017 -398 1105 -941 12 -77 15 -206 15 -717 l0 -623 25 -24 c32
-33 78 -33 111 0 l25 25 -4 673 c-3 585 -6 681 -21 742 -77 323 -244 586 -486
769 -415 311 -978 342 -1424 78 -305 -182 -512 -473 -602 -847 -15 -62 -18
-161 -21 -847 l-4 -778 -80 0 -79 0 0 375 0 376 -25 24 c-32 33 -78 33 -110 0
l-25 -24 0 -376 0 -375 -56 0 c-31 0 -75 -5 -98 -12 -55 -16 -138 -99 -154
-154 -17 -57 -17 -491 0 -548 16 -55 99 -138 154 -154 30 -9 181 -12 553 -12
l512 0 24 25 c33 32 33 78 0 110 l-24 25 -511 0 -511 0 -24 25 -25 24 0 231 0
231 25 24 24 25 376 0 375 0 0 -96 c0 -53 5 -115 12 -138 16 -55 99 -138 154
-154 31 -9 233 -12 796 -12 859 0 816 -4 891 80 54 60 67 103 67 224 l0 96
375 0 376 0 24 -25 25 -24 0 -231 0 -231 -25 -24 -24 -25 -1071 0 -1071 0 -24
-25 c-33 -32 -33 -78 0 -110 l24 -25 1072 0 c812 0 1082 3 1113 12 55 16 138
99 154 154 16 56 17 492 0 546 -6 22 -31 62 -55 88 -51 57 -108 80 -195 80
l-58 0 0 718 c0 834 -6 910 -85 1142 -188 555 -641 953 -1215 1070 -120 25
-369 35 -488 20z m988 -3205 c0 -88 -2 -98 -25 -120 l-24 -25 -751 0 -751 0
-24 25 c-23 22 -25 32 -25 120 l0 95 800 0 800 0 0 -95z"/>
<path d="M1076 4019 c-20 -16 -26 -29 -26 -58 0 -34 8 -45 79 -114 62 -60 85
-77 107 -77 33 1 56 15 73 48 20 38 7 63 -78 145 -86 84 -109 92 -155 56z"/>
<path d="M3888 3962 c-89 -89 -99 -122 -53 -167 45 -46 78 -36 167 53 89 89
99 122 53 167 -45 46 -78 36 -167 -53z"/>
<path d="M536 3719 c-20 -16 -26 -29 -26 -59 0 -32 6 -43 33 -63 69 -52 368
-217 393 -217 58 0 95 83 57 128 -25 29 -383 232 -409 232 -12 0 -33 -9 -48
-21z"/>
<path d="M4330 3634 c-102 -58 -193 -114 -202 -126 -39 -45 -2 -128 56 -128
25 0 324 165 394 217 26 20 32 31 32 63 0 30 -6 43 -26 59 -15 12 -36 21 -48
21 -12 0 -105 -48 -206 -106z"/>
<path d="M2448 3141 c-128 -41 -218 -143 -247 -281 -20 -95 10 -247 97 -495
55 -157 161 -413 192 -463 42 -68 104 -63 147 13 32 57 146 334 194 472 46
135 84 283 94 363 15 133 -48 269 -158 343 -97 66 -210 83 -319 48z m223 -176
c45 -29 74 -72 90 -128 13 -49 -2 -155 -43 -292 -36 -120 -147 -405 -158 -405
-12 0 -122 284 -158 406 -66 222 -63 313 14 390 23 24 57 48 76 53 53 17 135
6 179 -24z"/>
<path d="M2480 1694 c-80 -34 -130 -111 -130 -198 0 -67 9 -93 52 -141 130
-149 368 -58 368 140 0 152 -154 258 -290 199z m111 -154 c30 -17 26 -77 -6
-92 -41 -18 -75 3 -75 46 0 48 37 69 81 46z"/>
</g>
</svg>
