<svg xmlns="http://www.w3.org/2000/svg" viewBox="0 0 461.01 464.53"><defs><style>.cls-1{fill:#435ebe;}</style></defs><g id="Layer_2" data-name="Layer 2"><g id="Layer_1-2" data-name="Layer 1"><path class="cls-1" d="M3.8,224.31H112.35A3.74,3.74,0,0,0,115,223.2L223.26,114.38a3.74,3.74,0,0,0,1.09-2.65V3.76A3.75,3.75,0,0,0,220.59,0H141.73A3.75,3.75,0,0,0,138,3.76V134.18a3.76,3.76,0,0,1-3.76,3.75H3.8a3.75,3.75,0,0,0-3.75,3.76v78.86A3.75,3.75,0,0,0,3.8,224.31Z"/><path class="cls-1" d="M138,240.23H3.35c-1.83,0-3.67,1.37-3.3,3.3v79.78c-.34,3.71,1.47,3.3,3.3,3.3H134.67a3.3,3.3,0,0,1,3.3,3.3V461.23a3.3,3.3,0,0,0,3.3,3.3h79.79a3.29,3.29,0,0,0,3.29-3.3V326.61h0V240.23H138Z"/><path class="cls-1" d="M322.51,224.31H457.09a3.34,3.34,0,0,0,3.34-3.35V141.27a3.33,3.33,0,0,0-3.34-3.34H325.85a3.35,3.35,0,0,1-3.34-3.35V3.34A3.35,3.35,0,0,0,319.17,0h-79.7a3.35,3.35,0,0,0-3.34,3.34V137.93h0v86.38h86.38Z"/><path class="cls-1" d="M461,241.91a1.65,1.65,0,0,0-1.67-1.64H369.23l-.05,0,0,0h0v0L236.47,409.64a1.65,1.65,0,0,0-.34,1V462.9a1.65,1.65,0,0,0,1.67,1.63h60.77a1.67,1.67,0,0,0,1.29-.6l3-3.63,133-169.85,0,0,24.79-31.95a1.65,1.65,0,0,0,.34-1Z"/></g></g></svg>